<svg width="100%" viewBox="0 0 469 158" fill="none" xmlns="http://www.w3.org/2000/svg"><path fill-rule="evenodd" clip-rule="evenodd" d="M41.205 54.51H33.19l.049-.056c-13.576 0-19.429 2.453-21.857 14.393l-.745 3.238H3.764l-2.347 11.01h6.962L0 122.76h15.527l8.37-39.666h7.74c-3.986 5.908-5.733 12.979-5.733 18.927 0 14.862 10.379 21.921 23.93 21.921 13.486 0 21.746-7.103 26.056-15.592-.013.305-.023.61-.03.916 0 9.973 5.351 14.676 14.572 14.676V124c8.653 0 13.883-3.667 17.121-7.715l-1.409 6.476h15.146l10.751-50.619h-15.527l-5.666 26.536c-1.887 9.034-6.307 13.543-12.516 13.543-4.322 0-6.395-2.485-6.395-7.285.046-2.125.332-4.237.85-6.298l5.667-26.536H82.927L79.41 88.86c-1.636-12.238-11.235-18.07-23.553-18.07-8.501 0-14.942 2.812-19.63 7.013l1.221-5.702H26.253l.47-2.534c.938-3.862 2.16-4.145 7.714-4.145h4.42l2.348-10.912zm392.398.009h15.518v68.202h-15.518V54.519zm-27.912 26.528c-4.987 0-8.468 2.534-9.034 7.431h-14.136l-7.892 34.243h-18.068l-6.768-37.351-6.775 37.351h-17.964l-11.665-50.62h15.899l6.679 34.341 5.828-34.34h15.996l5.926 34.34 6.679-34.34h15.898l-2.301 9.987c3.453-6.605 11.547-11.582 23.009-11.582 14.491 0 22.869 5.828 22.578 21.266l-.186 11.001c-.089 6.59.186 15.616 1.125 19.947h-15.235l-.186-6.12c-3.765 5.367-9.787 7.342-17 7.342-9.593 0-17.494-5.666-17.494-14.863 0-12.418 14.021-16.562 33.676-17.97v-1.976c0-5.926-3.011-8.095-8.557-8.095l-.032.008zm-1.943 32.372c6.201 0 10.912-2.63 10.912-11.94v-1.247c-10.823.939-18.068 2.356-18.068 7.715 0 3.295 3.109 5.456 7.156 5.456v.016zm65.11-58.9h-15.527v68.202h15.527V54.519zM54.723 82.836c-8.467 0-12.798 8.743-12.798 18.433 0 7.059 3.108 10.629 8.905 10.629 8.467 0 12.798-8.743 12.798-18.441 0-7.051-3.108-10.621-8.905-10.621zm153.639-3.959c3.384-4.233 8.273-7.803 16.741-7.803 9.22 0 14.571 4.703 14.571 14.765a41.476 41.476 0 01-1.028 8.468l-6.014 28.454h-15.527l5.667-26.341c.505-2.065.777-4.18.809-6.307 0-4.703-2.072-7.05-6.395-7.05-6.112 0-10.629 4.322-12.515 13.357l-5.667 26.341h-15.478l.009-.04h-9.691c-9.965 0-14.393-1.506-14.393-8.379.06-1.962.312-3.915.753-5.828l4.436-20.748a27.19 27.19 0 00-5.359-.47c-6.581 0-11.195 2.25-12.701 9.787l-5.456 25.678h-15.519l10.718-50.651h15.057l-1.951 9.293c3.554-5.456 9.286-9.876 17-9.876h1.668l2.833-13.268h15.519l-3.004 13.835h10.832l3.731-17.583h15.527l-5.173 24.366zm-16.419 4.218H181.09l-4.801 22.65a14.103 14.103 0 00-.283 2.542c0 2.672 1.603 3.238 5.739 3.238h4.165l6.033-28.43z" fill="currentColor"></path><path fill-rule="evenodd" clip-rule="evenodd" d="M313.909 54.648c6.111-5.544 10.89-10.581 12.557-14.455a2.05 2.05 0 011.458-1.206 2.05 2.05 0 011.823.492c2.327 2.122 4.367 4.403 5.029 7.622.653 3.172-.028 7.302-3.28 13.158-1.09 2.037-2.628 3.306-4.53 3.792-1.553.398-3.252.236-5.059-.336-2.367-.75-4.937-2.21-7.606-3.906-4.808 4.246-10.209 8.674-15.537 13.046-9.593 7.87-19.42 15.924-24.574 21.969-2.064 2.42-3.386 4.46-3.488 6.027a2.061 2.061 0 01-2.053 1.926l-.079-.002-.026-.001h-.006l-.025-.001a2.063 2.063 0 01-1.918-2.189c.183-2.797 2.466-6.354 6.257-10.417 5.444-5.835 13.992-12.853 23.303-20.494 4.984-4.086 10.031-8.229 14.57-12.192-3.617-2.362-6.696-4.248-9.27-5.13-2.321-.796-4.183-.749-5.58.79-3.106 14.496-9.747 21.276-19.45 20.47l-.708 2.178a396.617 396.617 0 01-2.453 7.44c-.35 1.031-1.459 1.594-2.502 1.318a2.057 2.057 0 01-1.454-2.419c.609-2.798 2.633-8.514 4.341-13.243a197.173 197.173 0 012.183-6.216c-2.318 2.018-4.815 3.894-7.423 5.672.095.459.151.92.165 1.384.138 4.142-2.883 7.913-7.789 11.219-6.981 4.703-17.78 8.565-27.718 11.686-1.338.421-2.609.82-3.108 1.015-.6.412-1.392.485-2.058.164a2.052 2.052 0 01-1.157-2.072c.07-.688.192-1.081.855-1.5 6.716-6.58 15.615-11.691 24.229-16.628 3.838-2.203 7.717-4.427 11.424-6.8-1.165-1.585-3.24-3.332-6.635-5.234-6.06-3.392-16.214-7.19-32.761-11.197a2.058 2.058 0 01-1.516-2.484 2.065 2.065 0 012.484-1.516c14.454 3.502 25.226 7.115 32.42 10.88 4.5 2.355 7.624 4.79 9.424 7.281 6.217-4.306 11.708-9.183 15.297-15.317a2.055 2.055 0 012.807-.743 2.06 2.06 0 01.755 2.804c-1.635 2.857-3.048 5.862-4.32 8.94-1.147 2.777-3.546 8.384-2.971 8.662.014.007 1.569 1.724 5.74-1.163 3.731-2.583 6.32-7.892 7.973-15.914.063-.31.194-.6.385-.845 2.691-3.495 6.265-3.825 10.168-2.577 3.609 1.154 7.516 3.705 11.172 6.107l.235.155zm-49.554 16.336c-3.427 2.148-6.97 4.181-10.476 6.191-5.143 2.948-10.39 5.954-15.158 9.29 6.868-2.355 15.878-5.876 21.293-10.026 2.267-1.737 3.914-3.55 4.341-5.455zm64.521-26.612c-2.328 3.687-6.411 7.99-11.393 12.573 1.929 1.188 3.791 2.21 5.447 2.773 1.138.386 2.162.56 3.017.345.801-.204 1.413-.804 1.935-1.774 2.922-5.262 3.443-8.566 2.735-10.966-.347-1.173-.987-2.112-1.741-2.951zm-65.417 11.9c.244 0 .486-.044.73-.136 3.025-1.158 4.763-3.344 6.425-5.488.59-.755 1.179-1.516 1.842-2.208 2.997-3.132 7.783-4.935 12.392-6.707 1.667-.64 3.336-1.279 4.937-1.974 8.97-3.892 13.168-9.2 13.006-16.087a2.056 2.056 0 00-2.056-2.009H300.683a2.063 2.063 0 00-2.009 2.105c.125 5.25-3.287 9.072-10.528 12.214-1.549.673-3.163 1.291-4.772 1.91-5.097 1.96-10.352 4.01-13.892 7.7-.761.795-1.437 1.664-2.115 2.531-1.338 1.722-2.572 3.376-4.644 4.169a2.057 2.057 0 00.736 3.98zm-8.898-7.043c3.084 0 7.513-1.831 11.957-4.634 6.566-4.142 13.175-10.37 15.547-15.515 3.993-8.685 6.443-15.273 7.394-19.865.682-3.297.573-5.64-.177-7.064-.603-1.143-1.584-1.857-2.833-2.073-2.243-.378-4.111.653-5.716 2.398-1.437 1.564-2.666 3.713-3.811 5.734-.83 1.463-1.608 2.843-2.401 3.876-3.636 4.736-7.922 7.682-12.447 10.812l-1.587 1.1a70.13 70.13 0 01-2.37 1.581c-3.779 2.463-6.746 4.42-8.974 10.423-1.578 4.24-1.505 8.057.055 10.466 1.065 1.65 2.738 2.608 4.853 2.748.173.01.337.013.51.013zm31.106-45.107a1.075 1.075 0 00-.093-.004c-.638 0-1.222.487-1.825 1.145-1.149 1.254-2.234 3.185-3.249 4.973-.912 1.613-1.776 3.134-2.714 4.356-3.985 5.19-8.755 8.5-13.368 11.689l-1.579 1.098a94.136 94.136 0 01-2.478 1.652c-3.348 2.183-5.582 3.609-7.359 8.403-.649 1.743-.954 3.409-.888 4.773.039.814.206 1.512.538 2.024.359.554.912.828 1.667.876 2.363.142 6.069-1.514 9.906-3.946 5.89-3.734 12.053-9.362 14.097-13.803 4.985-10.838 6.814-16.818 7.342-20.116.293-1.83.193-2.708.003-3.12z" fill="currentColor"></path></svg>